<svg width="151" height="151" viewBox="0 0 151 151" fill="none" xmlns="http://www.w3.org/2000/svg">
<circle cx="75.5" cy="75.5" r="74" fill="white" stroke="#155DFC" stroke-width="3"/>
<path d="M79.9236 52.968H118.004V63.528H94.0676V69.608H114.548V79.72H94.0676V86.44H118.452V97H79.9236V52.968Z" fill="#155DFC"/>
<path d="M52.232 52.2C57.864 52.2 62.4933 53.352 66.12 55.656C69.7466 57.9173 71.6026 61.288 71.688 65.768V66.536H58.44V66.28C58.44 65 57.9706 63.9333 57.032 63.08C56.0933 62.2266 54.664 61.8 52.744 61.8C50.8666 61.8 49.416 62.0773 48.392 62.632C47.4106 63.1866 46.92 63.8693 46.92 64.68C46.92 65.832 47.6026 66.6853 48.968 67.24C50.3333 67.7946 52.5306 68.3706 55.56 68.968C59.1013 69.6933 62.0026 70.4613 64.264 71.272C66.568 72.04 68.5733 73.32 70.28 75.112C71.9866 76.904 72.8613 79.336 72.904 82.408C72.904 87.6133 71.1333 91.4746 67.592 93.992C64.0933 96.5093 59.4 97.768 53.512 97.768C46.6426 97.768 41.288 96.616 37.448 94.312C33.6506 92.008 31.752 87.9333 31.752 82.088H45.128C45.128 84.3066 45.704 85.8 46.856 86.568C48.008 87.2933 49.8 87.656 52.232 87.656C54.024 87.656 55.496 87.464 56.648 87.08C57.8426 86.696 58.44 85.9066 58.44 84.712C58.44 83.6453 57.7786 82.856 56.456 82.344C55.176 81.7893 53.064 81.2133 50.12 80.616C46.536 79.848 43.5706 79.0586 41.224 78.248C38.8773 77.3946 36.8293 76.008 35.08 74.088C33.3306 72.168 32.456 69.5653 32.456 66.28C32.456 61.4586 34.312 57.9173 38.024 55.656C41.7786 53.352 46.5146 52.2 52.232 52.2Z" fill="#155DFC"/>
</svg>
