<svg width="131" height="134" viewBox="0 0 131 134" fill="none" xmlns="http://www.w3.org/2000/svg">
<circle cx="62.5" cy="62.5" r="60" fill="#56E960" stroke="white" stroke-width="5"/>
<path d="M72.4298 50.568V51.464H79.8538V56.712H72.0458C71.5764 59.5707 70.6804 61.8533 69.3578 63.56C68.0778 65.224 66.2431 66.44 63.8538 67.208C61.4644 67.9333 58.3711 68.296 54.5738 68.296V72.328C54.5738 74.6747 55.0644 76.5307 56.0458 77.896C57.0698 79.2613 58.7764 79.944 61.1658 79.944C65.5178 79.944 67.6938 77.4907 67.6938 72.584H74.4137C74.3711 76.8933 73.1978 80.1573 70.8938 82.376C68.6324 84.552 65.3471 85.64 61.0378 85.64C56.7284 85.64 53.4218 84.4453 51.1178 82.056C48.8564 79.6667 47.7258 76.3173 47.7258 72.008V63.24C52.4618 63.24 55.9391 63.112 58.1578 62.856C60.3764 62.5573 62.0191 61.96 63.0858 61.064C64.1951 60.168 64.9204 58.7173 65.2618 56.712H45.0378V51.464H65.5818V50.568V45.768H45.0378V40.456H79.8538V45.768H72.4298V50.568Z" fill="white"/>
<circle cx="109" cy="112" r="20.5" fill="#22F3A3" stroke="white" stroke-width="3"/>
<rect x="100.015" y="109.833" width="12.6155" height="6" rx="2" transform="rotate(42 100.015 109.833)" fill="white"/>
<rect x="122.278" y="106.243" width="23.8076" height="6" rx="2" transform="rotate(135 122.278 106.243)" fill="white"/>
</svg>
