<!DOCTYPE svg PUBLIC "-//W3C//DTD SVG 1.1//EN" "http://www.w3.org/Graphics/SVG/1.1/DTD/svg11.dtd">

<!-- Uploaded to: SVG Repo, www.svgrepo.com, Transformed by: SVG Repo Mixer Tools -->
<svg version="1.1" id="Layer_1" xmlns="http://www.w3.org/2000/svg" xmlns:xlink="http://www.w3.org/1999/xlink" viewBox="0 0 512 512" xml:space="preserve" width="150px" height="150px" fill="#000000">

<g id="SVGRepo_bgCarrier" stroke-width="0"/>

<g id="SVGRepo_tracerCarrier" stroke-linecap="round" stroke-linejoin="round"/>

<g id="SVGRepo_iconCarrier"> <polygon style="fill:#EDEDED;" points="342.232,272.168 126.653,88.926 148.211,67.368 406.905,207.495 "/> <polygon style="fill:#DBDBDB;" points="406.905,207.495 256,125.754 256,198.872 342.232,272.168 "/> <polygon style="fill:#797781;" points="428.463,363.789 29.642,363.789 29.642,412.295 471.579,412.295 "/> <polygon style="fill:#61AAE4;" points="428.463,207.495 342.232,293.726 342.232,369.179 503.916,369.179 503.916,207.495 "/> <polygon style="fill:#58575D;" points="439.242,369.179 288.337,369.179 245.221,412.295 471.579,412.295 "/> <rect x="169.768" y="336.842" style="fill:#797781;" width="97.011" height="32.337"/> <g> <rect x="126.653" y="304.505" style="fill:#88888F;" width="53.895" height="64.674"/> <circle style="fill:#88888F;" cx="88.926" cy="417.684" r="48.505"/> </g> <path style="fill:#EDEDED;" d="M88.926,431.158c-7.43,0-13.474-6.044-13.474-13.474s6.044-13.474,13.474-13.474 c7.43,0,13.474,6.044,13.474,13.474S96.356,431.158,88.926,431.158z"/> <polygon style="fill:#F8F8F9;" points="94.316,185.937 8.084,272.167 8.084,412.295 29.642,412.295 61.979,369.179 137.432,369.179 137.432,185.937 "/> <polygon style="fill:#D1E5F5;" points="94.316,185.937 61.979,185.937 8.084,239.83 8.084,272.168 94.316,272.168 "/> <path style="fill:#88888F;" d="M94.316,312.589H61.979c-4.466,0-8.084-3.62-8.084-8.084s3.618-8.084,8.084-8.084h32.337 c4.466,0,8.084,3.62,8.084,8.084S98.782,312.589,94.316,312.589z"/> <polygon style="fill:#B4D8F1;" points="8.084,272.168 94.316,272.168 94.316,185.937 8.084,272.167 "/> <path style="fill:#88888F;" d="M75.453,377.263H8.084c-4.466,0-8.084-3.62-8.084-8.084s3.618-8.084,8.084-8.084h67.368 c4.466,0,8.084,3.62,8.084,8.084S79.918,377.263,75.453,377.263z"/> <circle style="fill:#797781;" cx="315.284" cy="417.684" r="48.505"/> <path style="fill:#DBDBDB;" d="M315.284,431.158c-7.43,0-13.474-6.044-13.474-13.474s6.044-13.474,13.474-13.474 c7.43,0,13.474,6.044,13.474,13.474S322.714,431.158,315.284,431.158z"/> <circle style="fill:#797781;" cx="412.295" cy="417.684" r="48.505"/> <path style="fill:#DBDBDB;" d="M412.295,431.158c-7.43,0-13.474-6.044-13.474-13.474s6.044-13.474,13.474-13.474 s13.474,6.044,13.474,13.474S419.725,431.158,412.295,431.158z"/> <path style="fill:#88888F;" d="M460.8,474.274H40.421c-4.466,0-8.084-3.62-8.084-8.084s3.618-8.084,8.084-8.084H460.8 c4.466,0,8.084,3.62,8.084,8.084S465.266,474.274,460.8,474.274z"/> <path style="fill:#797781;" d="M460.8,458.105H266.779v16.168H460.8c4.466,0,8.084-3.62,8.084-8.084S465.266,458.105,460.8,458.105z "/> <path style="fill:#58575D;" d="M428.463,334.147h-32.337c-4.466,0-8.084-3.62-8.084-8.084s3.618-8.084,8.084-8.084h32.337 c4.466,0,8.084,3.62,8.084,8.084S432.929,334.147,428.463,334.147z"/> <circle style="fill:#DBDBDB;" cx="126.653" cy="67.368" r="21.558"/> <path style="fill:#EDEDED;" d="M133.64,125.315c0.694-1.192,1.097-2.574,1.097-4.052V67.368c0-4.465-3.618-8.084-8.084-8.084 c-4.466,0-8.084,3.62-8.084,8.084v53.895c0,2.074,0.787,3.958,2.071,5.389c-1.283,1.431-2.071,3.316-2.071,5.389 c0,4.465,3.618,8.084,8.084,8.084c1.486,0,2.695,1.209,2.695,2.695s-1.208,2.695-2.695,2.695c-4.466,0-8.084,3.62-8.084,8.084 c0,4.465,3.618,8.084,8.084,8.084c10.401,0,18.863-8.463,18.863-18.863C145.516,134.89,140.59,128.099,133.64,125.315z"/> <polygon style="fill:#D1E5F5;" points="428.463,207.495 385.347,207.495 342.232,250.611 342.232,293.726 428.463,293.726 "/> <polygon style="fill:#B4D8F1;" points="428.463,293.726 428.463,207.495 342.232,293.726 "/> <g> <path style="fill:#2E2D31;" d="M94.316,296.421H61.979c-4.466,0-8.084,3.62-8.084,8.084s3.618,8.084,8.084,8.084h32.337 c4.466,0,8.084-3.62,8.084-8.084S98.782,296.421,94.316,296.421z"/> <path style="fill:#2E2D31;" d="M428.463,317.979h-32.337c-4.466,0-8.084,3.62-8.084,8.084s3.618,8.084,8.084,8.084h32.337 c4.466,0,8.084-3.62,8.084-8.084S432.929,317.979,428.463,317.979z"/> <path style="fill:#2E2D31;" d="M503.916,199.411h-94.963L155.855,62.315c-2.407-13.945-14.582-24.589-29.202-24.589 c-16.344,0-29.642,13.297-29.642,29.642c0,13.542,9.132,24.983,21.558,28.512v25.382c0,2.074,0.787,3.958,2.071,5.389 c-1.283,1.431-2.071,3.316-2.071,5.389c0,4.465,3.618,8.084,8.084,8.084c1.486,0,2.695,1.209,2.695,2.695s-1.208,2.695-2.695,2.695 c-4.466,0-8.084,3.62-8.084,8.084c0,4.465,3.618,8.084,8.084,8.084c10.401,0,18.863-8.463,18.863-18.863 c0-7.931-4.926-14.722-11.876-17.506c0.694-1.192,1.097-2.574,1.097-4.052v-14.856l199.411,169.499v85.188h-45.811h-13.474v-24.253 c0-2.144-0.852-4.201-2.367-5.716c-1.517-1.517-3.572-2.368-5.717-2.368h-45.811v-88.926c0-4.465-3.618-8.084-8.084-8.084 s-8.084,3.62-8.084,8.084v88.926h-16.168v-24.253c0-4.465-3.618-8.084-8.084-8.084h-35.032V185.938 c0-4.465-3.618-8.084-8.084-8.084H61.979c-2.144,0-4.199,0.852-5.717,2.368L2.367,234.116C0.852,235.63,0,237.687,0,239.83v172.464 c0,4.465,3.618,8.084,8.084,8.084h21.558c0.951,0,1.88-0.168,2.751-0.483c0.578,14.942,6.972,28.411,16.983,38.209h-8.955 c-4.466,0-8.084,3.62-8.084,8.084s3.618,8.084,8.084,8.084H460.8c4.466,0,8.084-3.62,8.084-8.084s-3.618-8.084-8.084-8.084h-8.955 c9.904-9.692,16.275-22.976,16.97-37.726h13.543c4.466,0,8.084-3.62,8.084-8.084c0-1.712-0.535-3.296-1.442-4.603 c-0.193-0.314-0.486-0.675-0.925-1.113l-29.315-29.316h45.156c4.466,0,8.084-3.62,8.084-8.084V207.495 C512,203.03,508.382,199.411,503.916,199.411z M315.284,458.105c-22.289,0-40.421-18.132-40.421-40.421 c0-22.289,18.132-40.421,40.421-40.421c22.289,0,40.421,18.132,40.421,40.421C355.705,439.973,337.573,458.105,315.284,458.105z M143.882,404.211c-2.551-10.404-7.984-19.683-15.405-26.947h140.342l-26.947,26.947H143.882z M354.834,377.263h17.909 c-3.44,3.367-6.458,7.163-8.955,11.308C361.293,384.426,358.275,380.63,354.834,377.263z M406.872,215.579 c0.009,0,0.018,0.001,0.026,0.001s0.016-0.001,0.024-0.001h13.458v70.063h-70.063v-31.684l38.38-38.38H406.872z M113.179,67.368 c0-7.43,6.044-13.474,13.474-13.474c7.426,0,13.466,6.037,13.473,13.461c0,0.009,0,0.018,0,0.027 c-0.005,4.388-2.128,8.28-5.388,10.738V67.368c0-4.465-3.618-8.084-8.084-8.084s-8.084,3.62-8.084,8.084v10.753 C115.303,75.661,113.179,71.763,113.179,67.368z M142.911,92.136c4.682-3.084,8.439-7.457,10.766-12.612l225.865,122.343 l-43.027,43.027c-1.516,1.516-2.367,3.572-2.367,5.716v4.077L142.911,92.136z M258.695,361.095h-37.726v-16.168h37.726V361.095z M204.8,344.926v16.168h-16.168v-16.168H204.8z M172.463,312.589v24.253v24.253h-26.947v-48.505H172.463z M129.347,304.505v56.589 H16.168v-80.842h78.147c4.466,0,8.084-3.62,8.084-8.084v-78.146h26.947V304.505z M65.327,194.022h20.905v70.062H16.168V243.18 L65.327,194.022z M25.6,404.211h-9.432v-26.947h29.642L25.6,404.211z M48.505,417.684c0-22.281,18.123-40.409,40.399-40.421h0.042 c22.278,0.011,40.399,18.139,40.399,40.421c0,22.289-18.132,40.421-40.421,40.421S48.505,439.973,48.505,417.684z M128.476,458.105 c9.904-9.692,16.276-22.976,16.97-37.726H256c0.968,0,1.891-0.179,2.751-0.49c0.576,14.945,6.971,28.418,16.983,38.217H128.476z M354.834,458.105c3.44-3.367,6.458-7.163,8.955-11.308c2.496,4.146,5.514,7.942,8.955,11.308H354.834z M412.295,458.105 c-22.289,0-40.421-18.132-40.421-40.421c0-22.289,18.132-40.421,40.421-40.421c22.289,0,40.421,18.132,40.421,40.421 C452.716,439.973,434.583,458.105,412.295,458.105z M495.832,361.095h-56.589h-88.926v-59.284h78.147 c4.466,0,8.084-3.62,8.084-8.084v-78.147h59.284V361.095z"/> </g> </g>

</svg>