<svg width="54" height="48" viewBox="0 0 54 48" fill="none" xmlns="http://www.w3.org/2000/svg">
<path fill-rule="evenodd" clip-rule="evenodd" d="M0 15.7679C0 7.06145 7.01917 0 15.6933 0C20.0126 0 23.912 1.7558 26.7365 4.58788C29.5673 1.75496 33.4811 0 37.7782 0C46.4523 0 53.4715 7.06145 53.4715 15.7679C53.4715 25.0931 49.1458 32.4562 43.9814 37.7474C38.8434 43.0117 32.7631 46.3488 28.8888 47.6732C28.2066 47.9122 27.4254 48 26.7357 48C26.0461 48 25.2649 47.9122 24.5827 47.6732C20.7085 46.3488 14.628 43.0117 9.49 37.7474C4.32577 32.4562 0 25.0931 0 15.7679Z" fill="white"/>
<path fill-rule="evenodd" clip-rule="evenodd" d="M45.947 19.6607C46.9299 19.9691 47.4768 21.0159 47.1684 21.9988C45.0599 28.7188 40.7339 34.0117 36.2316 37.8547C35.4482 38.5235 34.2708 38.4305 33.6018 37.6468C32.933 36.8634 33.0261 35.686 33.8097 35.0173C37.9512 31.4822 41.7693 26.7451 43.6089 20.8821C43.9173 19.8992 44.9641 19.3523 45.947 19.6607Z" fill="#10BEAA"/>
</svg>
