<svg width="163" height="203" viewBox="0 0 163 203" fill="none" xmlns="http://www.w3.org/2000/svg">
<g filter="url(#filter0_d_89_55)">
<path d="M49.0971 80.3235L52.9174 121.66L35.3131 144.115L30.6918 109.414L49.0971 80.3235Z" fill="#F46464"/>
<path d="M113.903 80.3235L110.078 121.66L127.682 144.115L132.308 109.414L113.903 80.3235Z" fill="#F46464"/>
<path d="M103.089 34.808C97.1394 22.4267 87.7577 15 81.5 15C75.2424 15 65.8606 22.4318 59.9111 34.808H103.089Z" fill="#F46464"/>
<path d="M105.481 40.6182H57.5186C55.4044 46.7167 54.1459 53.7008 54.3201 61.3714C54.8323 83.3582 60.0655 122.173 60.0655 122.173L99.1094 122.168L102.93 122.173C102.93 122.173 108.168 83.3528 108.67 61.3714C108.854 53.7008 107.596 46.7116 105.481 40.6182ZM81.5 88.551C73.9937 88.551 67.9099 82.4722 67.9099 74.966C67.9099 67.4597 73.9985 61.3809 81.5 61.3809C89.0015 61.3809 95.0851 67.4597 95.08 74.966C95.0851 82.4726 89.0015 88.551 81.5 88.551Z" fill="#F46464"/>
<path d="M136.74 178C134.796 172.399 129.463 168.379 123.2 168.379C121.196 168.379 119.285 168.787 117.544 169.533C116.947 162.982 111.436 157.854 104.73 157.854C103.76 157.854 102.82 157.958 101.915 158.162C101.925 157.983 101.925 157.804 101.925 157.625C101.925 152.68 97.9153 148.671 92.9708 148.671C91.6875 148.671 90.4638 148.939 89.3594 149.427C86.2605 143.945 85.3598 129.639 85.3598 129.639H77.2417C77.2417 129.639 76.2019 145.348 72.5258 150.551C71.6701 150.203 70.7252 150.014 69.7402 150.014C65.5964 150.014 62.2387 153.372 62.2387 157.515C62.2387 157.829 62.2587 158.137 62.2985 158.441C61.1145 158.058 61.254 157.854 59.9407 157.854C54.6929 157.854 50.2209 161.166 48.4995 165.813C46.5744 165.012 44.4653 164.569 42.2517 164.569C34.2431 164.569 27.5872 170.369 26.2593 178H136.74Z" fill="#7494FE"/>
</g>
<defs>
<filter id="filter0_d_89_55" x="-20" y="0" width="203" height="203" filterUnits="userSpaceOnUse" color-interpolation-filters="sRGB">
<feFlood flood-opacity="0" result="BackgroundImageFix"/>
<feColorMatrix in="SourceAlpha" type="matrix" values="0 0 0 0 0 0 0 0 0 0 0 0 0 0 0 0 0 0 127 0" result="hardAlpha"/>
<feOffset dy="5"/>
<feGaussianBlur stdDeviation="10"/>
<feColorMatrix type="matrix" values="0 0 0 0 0.706667 0 0 0 0 0.706667 0 0 0 0 0.706667 0 0 0 0.35 0"/>
<feBlend mode="normal" in2="BackgroundImageFix" result="effect1_dropShadow_89_55"/>
<feBlend mode="normal" in="SourceGraphic" in2="effect1_dropShadow_89_55" result="shape"/>
</filter>
</defs>
</svg>
