<svg width="74" height="89" viewBox="0 0 74 89" fill="none" xmlns="http://www.w3.org/2000/svg">
<g filter="url(#filter0_d_100_2)">
<path d="M27.0604 34.6372L28.2322 47.0636L22.8321 53.8137L21.4146 43.3821L27.0604 34.6372Z" fill="white"/>
<path d="M46.9395 34.6372L45.7661 47.0636L51.1662 53.8137L52.5853 43.3821L46.9395 34.6372Z" fill="white"/>
<path d="M43.6224 20.9546C41.7974 17.2326 38.9196 15 37 15C35.0805 15 32.2027 17.2341 30.3777 20.9546H43.6224Z" fill="white"/>
<path d="M44.3563 22.7012H29.6438C28.9952 24.5345 28.6092 26.634 28.6626 28.9399C28.8198 35.5494 30.425 47.2176 30.425 47.2176L42.4017 47.2161L43.5736 47.2176C43.5736 47.2176 45.1803 35.5478 45.3344 28.9399C45.3909 26.634 45.0048 24.5329 44.3563 22.7012ZM37 37.1104C34.6975 37.1104 32.8313 35.2831 32.8313 33.0266C32.8313 30.7701 34.699 28.9427 37 28.9427C39.3011 28.9427 41.1672 30.7701 41.1657 33.0266C41.1672 35.2832 39.3011 37.1104 37 37.1104Z" fill="white"/>
<path d="M53.9449 63.9999C53.3483 62.3161 51.7125 61.1078 49.7915 61.1078C49.1765 61.1078 48.5906 61.2304 48.0565 61.4548C47.8734 59.4854 46.1827 57.9436 44.1258 57.9436C43.8283 57.9436 43.5399 57.975 43.2622 58.0363C43.2652 57.9825 43.2652 57.9287 43.2652 57.8748C43.2652 56.3884 42.0353 55.1831 40.5186 55.1831C40.125 55.1831 39.7496 55.2639 39.4108 55.4104C38.4602 53.7625 38.1839 49.4619 38.1839 49.4619H35.6937C35.6937 49.4619 35.3748 54.1843 34.2471 55.7485C33.9846 55.6438 33.6948 55.5869 33.3926 55.5869C32.1215 55.5869 31.0916 56.5963 31.0916 57.842C31.0916 57.9361 31.0977 58.0289 31.1099 58.1201C30.7467 58.005 30.7895 57.9436 30.3867 57.9436C28.7769 57.9436 27.4051 58.9395 26.8771 60.3362C26.2866 60.0954 25.6396 59.9624 24.9606 59.9624C22.504 59.9624 20.4623 61.706 20.0549 63.9999H53.9449Z" fill="white"/>
</g>
<defs>
<filter id="filter0_d_100_2" x="-8" y="0" width="90" height="89" filterUnits="userSpaceOnUse" color-interpolation-filters="sRGB">
<feFlood flood-opacity="0" result="BackgroundImageFix"/>
<feColorMatrix in="SourceAlpha" type="matrix" values="0 0 0 0 0 0 0 0 0 0 0 0 0 0 0 0 0 0 127 0" result="hardAlpha"/>
<feOffset dy="5"/>
<feGaussianBlur stdDeviation="10"/>
<feColorMatrix type="matrix" values="0 0 0 0 0.706667 0 0 0 0 0.706667 0 0 0 0 0.706667 0 0 0 0.35 0"/>
<feBlend mode="normal" in2="BackgroundImageFix" result="effect1_dropShadow_100_2"/>
<feBlend mode="normal" in="SourceGraphic" in2="effect1_dropShadow_100_2" result="shape"/>
</filter>
</defs>
</svg>
